<?xml version="1.0" encoding="utf-8"?>
<!-- Generator: Adobe Illustrator 21.1.0, SVG Export Plug-In . SVG Version: 6.00 Build 0)  -->
<svg version="1.1" id="Layer_1" xmlns="http://www.w3.org/2000/svg" xmlns:xlink="http://www.w3.org/1999/xlink" x="0px" y="0px"
	 width="39.8px" height="39.8px" viewBox="0 0 39.8 39.8" style="enable-background:new 0 0 39.8 39.8;" xml:space="preserve">
<style type="text/css">
	.st0{fill:#8CD6F1;}
	.st1{display:none;}
	.st2{display:inline;}
</style>
<g>
	<g>
		<g id="XMLID_4862_">
			<path class="st0" d="M15.5,21.4c-1.6,0-3.1-0.6-4.3-1.8c-1.2-1.1-1.8-2.7-1.8-4.3c0-1.6,0.6-3.2,1.8-4.3c1.1-1.2,2.7-1.8,4.3-1.8
				c1.6,0,3.2,0.6,4.3,1.8c1.2,1.1,1.8,2.7,1.8,4.3c0,1.6-0.6,3.2-1.8,4.3S17.2,21.4,15.5,21.4C15.5,21.4,15.5,21.4,15.5,21.4z
				 M15.5,10.7C15.5,10.7,15.5,10.7,15.5,10.7c-1.3,0-2.4,0.5-3.3,1.4c-0.9,0.9-1.3,2-1.3,3.3c0,1.2,0.5,2.4,1.4,3.3
				c0.9,0.9,2,1.3,3.2,1.3c0,0,0,0,0,0c1.2,0,2.4-0.5,3.3-1.4s1.3-2,1.3-3.3c0-1.2-0.5-2.4-1.4-3.3C17.9,11.2,16.8,10.7,15.5,10.7z"
				/>
		</g>
		<g id="XMLID_4856_">
			<path class="st0" d="M15.5,17.2c-0.5,0-1-0.2-1.4-0.6c0,0,0,0,0,0c-0.8-0.8-0.8-2,0-2.7c0.8-0.8,2-0.8,2.8,0
				c0.4,0.4,0.6,0.9,0.6,1.4c0,0.5-0.2,1-0.6,1.4C16.5,17,16.1,17.2,15.5,17.2C15.5,17.2,15.5,17.2,15.5,17.2z M15.2,15.6
				c0.1,0.1,0.2,0.1,0.3,0.1c0.1,0,0.2,0,0.3-0.1s0.1-0.2,0.1-0.3c0-0.1,0-0.2-0.1-0.3c-0.2-0.2-0.5-0.2-0.6,0
				C15,15.2,15,15.4,15.2,15.6L15.2,15.6z"/>
		</g>
		<g id="XMLID_4796_">
			<path class="st0" d="M25.5,27c-0.6,0-1.2-0.3-1.5-0.9c0,0,0,0,0,0c-0.2-0.4-0.3-0.9-0.1-1.3c0.1-0.4,0.4-0.8,0.9-1
				c0.9-0.4,1.9-0.1,2.4,0.7c0.4,0.9,0.1,1.9-0.7,2.4C26.1,26.9,25.8,27,25.5,27z M25.3,25.4c0.1,0.1,0.2,0.2,0.3,0.1
				c0.1-0.1,0.2-0.2,0.1-0.3C25.7,25,25.5,25,25.4,25c-0.1,0-0.1,0.1-0.1,0.1S25.3,25.3,25.3,25.4L25.3,25.4z"/>
		</g>
		<g id="XMLID_4795_">
			<path class="st0" d="M18.9,32.8c-0.5,0-0.9-0.2-1.2-0.5c-0.3-0.3-0.5-0.8-0.5-1.2s0.2-0.9,0.5-1.2c0.7-0.7,1.8-0.7,2.5,0
				c0.3,0.3,0.5,0.8,0.5,1.2c0,0.5-0.2,0.9-0.5,1.2C19.8,32.6,19.4,32.8,18.9,32.8C18.9,32.8,18.9,32.8,18.9,32.8z M18.9,30.8
				c0,0-0.1,0-0.2,0.1c-0.1,0.1-0.1,0.1-0.1,0.2c0,0,0,0.1,0.1,0.2c0,0,0,0,0,0c0.1,0.1,0.1,0.1,0.2,0.1c0,0,0.1,0,0.2-0.1
				c0.1-0.1,0.1-0.1,0.1-0.2c0,0,0-0.1-0.1-0.2C19,30.8,18.9,30.8,18.9,30.8z"/>
		</g>
		<g id="XMLID_4788_">
			<path class="st0" d="M18.5,30.9c-0.3,0-0.6-0.2-0.7-0.4L13.4,21c-0.2-0.4,0-0.8,0.4-1c0.4-0.2,0.8,0,1,0.4l4.5,9.4
				c0.2,0.4,0,0.8-0.4,1C18.7,30.8,18.6,30.9,18.5,30.9z"/>
		</g>
		<g id="XMLID_1913_">
			<path class="st0" d="M31.3,20.4C31.3,20.4,31.3,20.4,31.3,20.4c-0.5,0-0.9-0.2-1.2-0.5c-0.3-0.3-0.5-0.8-0.5-1.2
				c0-0.5,0.2-0.9,0.5-1.2c0.3-0.3,0.8-0.5,1.2-0.5c0,0,0,0,0,0c0.5,0,0.9,0.2,1.2,0.5c0.3,0.3,0.5,0.8,0.5,1.2s-0.2,0.9-0.5,1.2
				C32.2,20.2,31.7,20.4,31.3,20.4z M31.3,18.4c0,0-0.1,0-0.2,0.1c-0.1,0.1-0.1,0.1-0.1,0.2c0,0,0,0.1,0.1,0.2
				c0.1,0.1,0.1,0.1,0.2,0.1c0,0,0.1,0,0.2-0.1c0.1-0.1,0.1-0.1,0.1-0.2s0-0.1-0.1-0.2C31.4,18.4,31.3,18.4,31.3,18.4z"/>
		</g>
		<g id="XMLID_180_">
			<path class="st0" d="M30.4,19c-0.1,0-0.2,0-0.3-0.1l-9.4-4.5c-0.4-0.2-0.5-0.6-0.4-1c0.2-0.4,0.6-0.5,1-0.4l9.4,4.5
				c0.4,0.2,0.5,0.6,0.4,1C30.9,18.8,30.7,19,30.4,19z"/>
		</g>
		<g id="XMLID_4519_">
			<path class="st0" d="M22.7,12.3c-0.3,0-0.5-0.2-0.7-0.4c-1.2-2.5-4.4-4.1-6.5-4c-0.4,0-0.8-0.3-0.8-0.7c0-0.4,0.3-0.8,0.7-0.8
				c2.6-0.2,6.4,1.7,7.9,4.8c0.2,0.4,0,0.8-0.4,1C22.9,12.3,22.8,12.3,22.7,12.3z"/>
		</g>
		<g>
			<path class="st0" d="M24.5,25c-0.2,0-0.4-0.1-0.5-0.2l-5.2-5.2c-0.3-0.3-0.3-0.8,0-1.1s0.8-0.3,1.1,0l5.2,5.2
				c0.3,0.3,0.3,0.8,0,1.1C24.9,24.9,24.7,25,24.5,25z"/>
		</g>
		<g>
			<path class="st0" d="M25,32.4c-0.2,0-0.4-0.1-0.5-0.2l-2.9-2.9c-0.3-0.3-0.3-0.8,0-1.1s0.8-0.3,1.1,0l2.9,2.9
				c0.3,0.3,0.3,0.8,0,1.1C25.4,32.3,25.2,32.4,25,32.4z"/>
		</g>
		<g>
			<path class="st0" d="M31.9,28.4c-0.2,0-0.4-0.1-0.5-0.2l-3-3c-0.3-0.3-0.3-0.8,0-1.1s0.8-0.3,1.1,0l3,3c0.3,0.3,0.3,0.8,0,1.1
				C32.3,28.3,32.1,28.4,31.9,28.4z"/>
		</g>
		<g>
			<path class="st0" d="M28.3,21.9c-0.2,0-0.4-0.1-0.5-0.2l-1.2-1.2c-0.3-0.3-0.3-0.8,0-1.1c0.3-0.3,0.8-0.3,1.1,0l1.2,1.2
				c0.3,0.3,0.3,0.8,0,1.1C28.7,21.8,28.5,21.9,28.3,21.9z"/>
		</g>
		<g>
			<path class="st0" d="M16.4,15.2c-0.2,0-0.4-0.1-0.5-0.2c-0.3-0.3-0.3-0.8,0-1.1l2.9-2.9c0.3-0.3,0.8-0.3,1.1,0s0.3,0.8,0,1.1
				L16.9,15C16.7,15.1,16.6,15.2,16.4,15.2z"/>
		</g>
		<g>
			<path class="st0" d="M11.7,19.8c-0.2,0-0.4-0.1-0.5-0.2c-0.3-0.3-0.3-0.8,0-1.1l2.9-2.9c0.3-0.3,0.8-0.3,1.1,0s0.3,0.8,0,1.1
				l-2.9,2.9C12.1,19.8,11.9,19.8,11.7,19.8z"/>
		</g>
		<g>
			<path class="st0" d="M15.6,23.8c-1.9,0-3.7-0.7-4.9-1.5c-0.3-0.2-0.4-0.7-0.2-1c0.2-0.3,0.7-0.4,1-0.2c1.7,1.2,4.6,2,7.3,0.3
				c0.4-0.2,0.8-0.1,1,0.3c0.2,0.4,0.1,0.8-0.3,1C18.3,23.5,16.9,23.8,15.6,23.8z"/>
		</g>
	</g>
	<g>
		<path class="st0" d="M19.9,39.8C8.9,39.8,0,30.9,0,19.9C0,8.9,8.9,0,19.9,0c11,0,19.9,8.9,19.9,19.9
			C39.8,30.9,30.9,39.8,19.9,39.8z M19.9,1.5C9.8,1.5,1.5,9.8,1.5,19.9s8.3,18.4,18.4,18.4S38.3,30,38.3,19.9S30,1.5,19.9,1.5z"/>
	</g>
</g>
<g class="st1">
	<g class="st2">
		<g id="XMLID_4882_">
			<path class="st0" d="M12,31.8c-0.1,0-0.2,0-0.2,0c-0.2-0.1-0.4-0.3-0.5-0.5l-2.2-7.8c-0.1-0.3,0-0.5,0.2-0.7L22.7,9.3
				c0.2-0.2,0.5-0.3,0.7-0.2l7.8,2.2c0.2,0.1,0.4,0.3,0.5,0.5c0.1,0.2,0,0.5-0.1,0.7c0,0.1-3.9,5.1-9,10.2c-5.7,5.6-10.2,9-10.2,9
				C12.3,31.8,12.2,31.8,12,31.8z M10.6,23.5l1.8,6.4c1.6-1.2,5.1-4.1,9.2-8.2c3.8-3.8,6.9-7.5,8.2-9.2l-6.3-1.8l-6.4,6.4l0,0
				L10.6,23.5z M16.5,16.5L16.5,16.5L16.5,16.5z"/>
		</g>
		<g id="XMLID_4881_">
			<path class="st0" d="M10.3,23.5c-0.2,0-0.4-0.1-0.5-0.2c-3.7-3.7-3.7-9.8,0-13.5C11.6,8,14,7,16.5,7c0,0,0,0,0,0
				c2.5,0,4.9,1,6.7,2.8c0.3,0.3,0.3,0.8,0,1.1c-0.3,0.3-0.8,0.3-1.1,0c-1.5-1.5-3.5-2.4-5.7-2.4c0,0,0,0,0,0
				c-2.1,0-4.2,0.8-5.7,2.3c-1.5,1.5-2.4,3.5-2.4,5.7c0,2.1,0.8,4.2,2.3,5.7c0.3,0.3,0.3,0.8,0,1.1C10.7,23.4,10.5,23.5,10.3,23.5z"
				/>
		</g>
		<g id="XMLID_4880_">
			<path class="st0" d="M19.4,21.7c-0.6,0-1.2-0.2-1.6-0.7c-0.9-0.9-0.9-2.4,0-3.3c0.9-0.9,2.4-0.9,3.3,0l0,0c0.9,0.9,0.9,2.4,0,3.3
				C20.6,21.5,20,21.7,19.4,21.7z M19.4,18.6c-0.2,0-0.4,0.1-0.6,0.2c-0.3,0.3-0.3,0.8,0,1.2c0.3,0.3,0.8,0.3,1.2,0
				c0.2-0.2,0.2-0.4,0.2-0.6c0-0.2-0.1-0.4-0.2-0.6c0,0,0,0,0,0C19.8,18.6,19.6,18.6,19.4,18.6z"/>
		</g>
		<g id="XMLID_4879_">
			<path class="st0" d="M22.2,26.8C22.2,26.8,22.1,26.8,22.2,26.8c-1.2,0-2.4-0.5-3.3-1.4c-0.3-0.3-0.3-0.8,0-1.1
				c0.3-0.3,0.8-0.3,1.1,0c0.6,0.6,1.4,0.9,2.2,0.9c0,0,0,0,0,0c0.8,0,1.6-0.3,2.2-0.9c0.6-0.6,0.9-1.4,0.9-2.2S25,20.5,24.4,20
				c-0.3-0.3-0.3-0.8,0-1.1c0.3-0.3,0.8-0.3,1.1,0c0.9,0.9,1.4,2,1.3,3.3c0,1.2-0.5,2.4-1.4,3.3C24.5,26.3,23.4,26.8,22.2,26.8z"/>
		</g>
		<g id="XMLID_4878_">
			<path class="st0" d="M28.1,20.3c-0.3,0-0.5-0.1-0.7-0.4c-0.2-0.4,0-0.8,0.3-1l4.5-2.3c0.4-0.2,0.8,0,1,0.3c0.2,0.4,0,0.8-0.3,1
				l-4.5,2.3C28.3,20.3,28.2,20.3,28.1,20.3z"/>
		</g>
		<g id="XMLID_4877_">
			<path class="st0" d="M33.4,25.1c0,0-0.1,0-0.1,0l-4.9-0.9c-0.4-0.1-0.7-0.5-0.6-0.9s0.5-0.7,0.9-0.6l4.9,0.9
				c0.4,0.1,0.7,0.5,0.6,0.9C34.1,24.9,33.8,25.1,33.4,25.1z"/>
		</g>
		<g id="XMLID_1973_">
			<path class="st0" d="M17.2,33.3c-0.1,0-0.2,0-0.3-0.1c-0.4-0.2-0.5-0.6-0.3-1l2.3-4.5c0.2-0.4,0.6-0.5,1-0.3
				c0.4,0.2,0.5,0.6,0.3,1l-2.3,4.5C17.8,33.2,17.5,33.3,17.2,33.3z"/>
		</g>
		<g id="XMLID_1919_">
			<path class="st0" d="M24.3,34.2c-0.4,0-0.7-0.2-0.7-0.6l-0.9-4.9c-0.1-0.4,0.2-0.8,0.6-0.9c0.4-0.1,0.8,0.2,0.9,0.6l0.9,4.9
				c0.1,0.4-0.2,0.8-0.6,0.9C24.4,34.2,24.4,34.2,24.3,34.2z"/>
		</g>
		<g id="XMLID_4873_">
			<path class="st0" d="M28.6,29.4c-0.2,0-0.4-0.1-0.5-0.2l-1.9-1.9c-0.3-0.3-0.3-0.8,0-1.1c0.3-0.3,0.8-0.3,1.1,0l1.9,1.9
				c0.3,0.3,0.3,0.8,0,1.1C29,29.3,28.8,29.4,28.6,29.4z"/>
		</g>
		<g id="XMLID_4871_">
			<path class="st0" d="M23.6,16.2c-0.4,0-0.8-0.2-1.2-0.5c-0.6-0.6-0.6-1.7,0-2.3c0.3-0.3,0.7-0.5,1.2-0.5c0,0,0,0,0,0
				c0.4,0,0.8,0.2,1.2,0.5c0,0,0,0,0,0c0.6,0.6,0.6,1.7,0,2.3C24.4,16,24,16.2,23.6,16.2z M23.6,14.4C23.5,14.4,23.5,14.4,23.6,14.4
				c-0.1,0.1-0.1,0.2-0.1,0.2c0.1,0.1,0.1,0.1,0.2,0C23.7,14.6,23.7,14.5,23.6,14.4C23.6,14.4,23.6,14.4,23.6,14.4z"/>
		</g>
		<g id="XMLID_1916_">
			<path class="st0" d="M14.5,25.2c-0.4,0-0.8-0.2-1.2-0.5l0,0c-0.6-0.6-0.6-1.7,0-2.3c0.3-0.3,0.7-0.5,1.2-0.5c0,0,0,0,0,0
				c0.4,0,0.8,0.2,1.2,0.5c0.6,0.6,0.6,1.7,0,2.3C15.4,25,15,25.2,14.5,25.2z M14.5,23.4C14.5,23.4,14.5,23.4,14.5,23.4
				c-0.1,0.1-0.1,0.2-0.1,0.2c0,0,0,0,0,0c0.1,0.1,0.1,0.1,0.2,0C14.7,23.6,14.7,23.5,14.5,23.4C14.6,23.4,14.6,23.4,14.5,23.4z"/>
		</g>
		<g id="XMLID_2062_">
			<path class="st0" d="M12.3,13c-0.2,0-0.4-0.1-0.5-0.2c-0.3-0.3-0.3-0.8,0-1.1c1.8-1.8,4.6-2.4,7-1.6c0.4,0.1,0.6,0.6,0.5,1
				s-0.6,0.6-1,0.5c-1.9-0.7-4-0.2-5.5,1.2C12.7,13,12.5,13,12.3,13z"/>
		</g>
	</g>
	<g class="st2">
		<path class="st0" d="M19.9,39.8C8.9,39.8,0,30.9,0,19.9C0,8.9,8.9,0,19.9,0c11,0,19.9,8.9,19.9,19.9
			C39.8,30.9,30.9,39.8,19.9,39.8z M19.9,1.5C9.8,1.5,1.5,9.8,1.5,19.9s8.3,18.4,18.4,18.4S38.3,30,38.3,19.9S30,1.5,19.9,1.5z"/>
	</g>
</g>
<g class="st1">
	<g class="st2">
		<g>
			<path class="st0" d="M13.7,21.2c-2,0-4-0.8-5.4-2.2c-0.3-0.3-0.3-0.8,0-1.1L18,8.2C18.1,8,18.3,8,18.5,8l0,0
				c0.2,0,0.4,0.1,0.5,0.2c3,3,3,7.8,0,10.8C17.6,20.4,15.7,21.2,13.7,21.2z M9.9,18.4c1.1,0.8,2.4,1.3,3.8,1.3
				c1.6,0,3.2-0.6,4.3-1.8c2.2-2.2,2.4-5.7,0.5-8.1L9.9,18.4z"/>
		</g>
		<g>
			<path class="st0" d="M21.1,26.2L21.1,26.2c-0.2,0-0.4-0.1-0.5-0.2l-5.2-5.2c-0.3-0.3-0.3-0.8,0-1.1s0.8-0.3,1.1,0l4.7,4.7
				l3.3-3.3l-4.7-4.7c-0.3-0.3-0.3-0.8,0-1.1s0.8-0.3,1.1,0l5.2,5.2c0.3,0.3,0.3,0.8,0,1.1l-4.4,4.4C21.5,26.1,21.3,26.2,21.1,26.2z
				"/>
		</g>
		<g>
			<path class="st0" d="M23.3,26.6c-0.2,0-0.4-0.1-0.5-0.2L21.5,25c-0.3-0.3-0.3-0.8,0-1.1l2.6-2.6c0.3-0.3,0.8-0.3,1.1,0l1.3,1.3
				c0.3,0.3,0.3,0.8,0,1.1l-2.6,2.6C23.7,26.5,23.5,26.6,23.3,26.6z M23.1,24.5l0.2,0.2l1.6-1.6L24.6,23L23.1,24.5z"/>
		</g>
		<g>
			<path class="st0" d="M28,19.3L28,19.3c-0.2,0-0.4-0.1-0.5-0.2l-4.4-4.4c-0.3-0.3-0.3-0.8,0-1.1l6.4-6.4C29.7,7,29.9,7,30.1,7l0,0
				c0.2,0,0.4,0.1,0.5,0.2l4.4,4.4c0.3,0.3,0.3,0.8,0,1.1l-6.4,6.4C28.4,19.2,28.2,19.3,28,19.3z M24.7,14.1l3.3,3.3l5.4-5.4
				l-3.3-3.3L24.7,14.1z"/>
		</g>
		<g>
			<path class="st0" d="M25.8,27.3c-0.2,0-0.4-0.1-0.5-0.2c-0.3-0.3-0.3-0.8,0-1.1l0.9-0.9c0.3-0.3,0.8-0.3,1.1,0s0.3,0.8,0,1.1
				l-0.9,0.9C26.2,27.2,26,27.3,25.8,27.3z"/>
		</g>
		<g>
			<path class="st0" d="M24.4,30.4c-0.4,0-0.8-0.3-0.8-0.8c0-0.4,0.3-0.7,0.7-0.8c0.1,0,1.6,0,3.1-1.5c1.5-1.5,1.5-3,1.5-3.1
				c0-0.4,0.3-0.8,0.8-0.7c0.4,0,0.7,0.3,0.7,0.7c0,0.1,0,2.2-2,4.1S24.5,30.4,24.4,30.4z"/>
		</g>
		<g>
			<path class="st0" d="M23.2,19.5c-0.2,0-0.4-0.1-0.5-0.2c-0.2-0.2-0.3-0.5-0.2-0.8l1.3-3.7c0.1-0.2,0.3-0.4,0.5-0.5
				c0.3-0.1,0.5,0,0.7,0.2l2.6,2.6c0.2,0.2,0.3,0.5,0.2,0.7c-0.1,0.3-0.3,0.5-0.5,0.5l-3.9,1.1C23.4,19.5,23.3,19.5,23.2,19.5z
				 M24.8,16.4l-0.4,1.2l1.3-0.4L24.8,16.4z"/>
		</g>
		<g>
			<path class="st0" d="M12.2,35.1c-0.2,0-0.4-0.1-0.5-0.2l-4.4-4.4C7.1,30.3,7,30.2,7,30s0.1-0.4,0.2-0.5l6.4-6.4
				c0.1-0.1,0.3-0.2,0.5-0.2l0,0c0.2,0,0.4,0.1,0.5,0.2l4.4,4.4c0.3,0.3,0.3,0.8,0,1.1l-6.4,6.4C12.6,35,12.4,35.1,12.2,35.1z
				 M8.9,30l3.3,3.3l5.4-5.4l-3.3-3.3L8.9,30z"/>
		</g>
		<g>
			<path class="st0" d="M17.7,27.8c-0.2,0-0.4-0.1-0.5-0.2l-2.6-2.6c-0.2-0.2-0.3-0.4-0.2-0.7c0.1-0.3,0.2-0.5,0.5-0.5l3.7-1.3
				c0.3-0.1,0.6,0,0.8,0.2c0.2,0.2,0.3,0.5,0.2,0.7l-1.1,3.9c-0.1,0.3-0.3,0.5-0.5,0.5C17.9,27.8,17.8,27.8,17.7,27.8z M16.5,24.7
				l0.9,0.9l0.4-1.3L16.5,24.7z"/>
		</g>
		<g>
			<path class="st0" d="M13.7,14.3c-0.2,0-0.4-0.1-0.5-0.2l-1.5-1.5c-0.3-0.3-0.3-0.8,0-1.1s0.8-0.3,1.1,0l1.5,1.5
				c0.3,0.3,0.3,0.8,0,1.1C14.1,14.3,13.9,14.3,13.7,14.3z"/>
		</g>
		<g>
			<path class="st0" d="M10.6,13.1c-0.6,0-1.3-0.2-1.8-0.7c-1-1-1-2.6,0-3.5c1-1,2.6-1,3.5,0c1,1,1,2.6,0,3.5
				C11.9,12.8,11.3,13.1,10.6,13.1z M10.6,9.6c-0.3,0-0.5,0.1-0.7,0.3c-0.4,0.4-0.4,1,0,1.4c0.4,0.4,1,0.4,1.4,0
				c0.2-0.2,0.3-0.4,0.3-0.7c0-0.3-0.1-0.5-0.3-0.7C11.2,9.7,10.9,9.6,10.6,9.6z"/>
		</g>
		<g>
			<path class="st0" d="M24,10.7c-0.2,0-0.4-0.1-0.5-0.2c-0.3-0.3-0.3-0.8,0-1.1l3.1-3.1c0.3-0.3,0.8-0.3,1.1,0s0.3,0.8,0,1.1
				l-3.1,3.1C24.4,10.6,24.2,10.7,24,10.7z"/>
		</g>
		<g>
			<path class="st0" d="M15.9,34.9c-0.2,0-0.4-0.1-0.5-0.2c-0.3-0.3-0.3-0.8,0-1.1l2.2-2.2c0.3-0.3,0.8-0.3,1.1,0s0.3,0.8,0,1.1
				l-2.2,2.2C16.2,34.8,16.1,34.9,15.9,34.9z"/>
		</g>
	</g>
	<g class="st2">
		<path class="st0" d="M19.9,39.8C8.9,39.8,0,30.9,0,19.9C0,8.9,8.9,0,19.9,0s19.9,8.9,19.9,19.9C39.8,30.9,30.9,39.8,19.9,39.8z
			 M19.9,1.5C9.8,1.5,1.5,9.8,1.5,19.9s8.3,18.4,18.4,18.4S38.3,30,38.3,19.9S30,1.5,19.9,1.5z"/>
	</g>
</g>
</svg>
